<?xml version="1.0" encoding="UTF-8" standalone="no"?>
<!DOCTYPE svg PUBLIC "-//W3C//DTD SVG 1.1//EN"
 "http://www.w3.org/Graphics/SVG/1.1/DTD/svg11.dtd">
<!-- Generated by graphviz version 2.40.1 (20161225.0304)
 -->
<!-- Title: G Pages: 1 -->
<svg width="259pt" height="158pt"
 viewBox="0.00 0.00 259.00 158.00" xmlns="http://www.w3.org/2000/svg" xmlns:xlink="http://www.w3.org/1999/xlink">
<g id="graph0" class="graph" transform="scale(1 1) rotate(0) translate(4 154)">
<title>G</title>
<polygon fill="#ffffff" stroke="transparent" points="-4,4 -4,-154 255,-154 255,4 -4,4"/>
<!-- association -->
<g id="node1" class="node">
<title>association</title>
<text text-anchor="start" x="188.4488" y="-88.7" font-family="Bitstream-Vera Sans" font-size="7.00" fill="#000000">association</text>
<polygon fill="none" stroke="#000000" points="165.5,-83 165.5,-85 242.5,-85 242.5,-83 165.5,-83"/>
<text text-anchor="start" x="167.5" y="-74.7" font-family="Bitstream-Vera Sans" font-size="7.00" fill="#000000">&#45; user_id : INTEGER(11)</text>
<text text-anchor="start" x="167.356" y="-62.7" font-family="Bitstream-Vera Sans" font-size="7.00" fill="#000000">&#45; song_id : INTEGER(11)</text>
<polygon fill="none" stroke="#000000" points="164,-58 164,-98 243,-98 243,-58 164,-58"/>
</g>
<!-- users -->
<g id="node2" class="node">
<title>users</title>
<text text-anchor="start" x="53.3089" y="-136.7" font-family="Bitstream-Vera Sans" font-size="7.00" fill="#000000">users</text>
<polygon fill="none" stroke="#000000" points="16,-131 16,-133 105,-133 105,-131 16,-131"/>
<text text-anchor="start" x="18" y="-122.7" font-family="Bitstream-Vera Sans" font-size="7.00" fill="#000000">&#45; id : INTEGER(11)</text>
<text text-anchor="start" x="17.638" y="-110.7" font-family="Bitstream-Vera Sans" font-size="7.00" fill="#000000">&#45; username : VARCHAR(200)</text>
<text text-anchor="start" x="17.8301" y="-98.7" font-family="Bitstream-Vera Sans" font-size="7.00" fill="#000000">&#45; password : VARCHAR(200)</text>
<polygon fill="none" stroke="#000000" points="14.5,-94 14.5,-146 105.5,-146 105.5,-94 14.5,-94"/>
</g>
<!-- users&#45;&gt;association -->
<g id="edge1" class="edge">
<title>users&#45;&gt;association</title>
<path fill="none" stroke="#000000" d="M113.8424,-104.2413C127.6804,-100.1911 142.4678,-95.8631 155.961,-91.9138"/>
<text text-anchor="middle" x="150.3897" y="-85.6138" font-family="Bitstream-Vera Sans" font-size="7.00" fill="#000000">+ id</text>
<text text-anchor="middle" x="126.9936" y="-97.9413" font-family="Bitstream-Vera Sans" font-size="7.00" fill="#000000">+ user_id</text>
</g>
<!-- songs -->
<g id="node3" class="node">
<title>songs</title>
<text text-anchor="start" x="52.0277" y="-58.7" font-family="Bitstream-Vera Sans" font-size="7.00" fill="#000000">songs</text>
<polygon fill="none" stroke="#000000" points="9,-53 9,-55 111,-55 111,-53 9,-53"/>
<text text-anchor="start" x="11" y="-44.7" font-family="Bitstream-Vera Sans" font-size="7.00" fill="#000000">&#45; id : INTEGER(11)</text>
<text text-anchor="start" x="11" y="-32.7" font-family="Bitstream-Vera Sans" font-size="7.00" fill="#000000">&#45; youtube_hash : VARCHAR(200)</text>
<text text-anchor="start" x="11" y="-20.7" font-family="Bitstream-Vera Sans" font-size="7.00" fill="#000000">&#45; title : VARCHAR(200)</text>
<text text-anchor="start" x="10.7158" y="-8.7" font-family="Bitstream-Vera Sans" font-size="7.00" fill="#000000">&#45; thumbnail_url : VARCHAR(200)</text>
<polygon fill="none" stroke="#000000" points="8,-4 8,-68 112,-68 112,-4 8,-4"/>
</g>
<!-- songs&#45;&gt;association -->
<g id="edge2" class="edge">
<title>songs&#45;&gt;association</title>
<path fill="none" stroke="#000000" d="M120.0255,-53.5684C132.0066,-57.0751 144.436,-60.713 155.9284,-64.0766"/>
<text text-anchor="middle" x="150.3571" y="-57.7766" font-family="Bitstream-Vera Sans" font-size="7.00" fill="#000000">+ id</text>
<text text-anchor="middle" x="133.9579" y="-47.2684" font-family="Bitstream-Vera Sans" font-size="7.00" fill="#000000">+ song_id</text>
</g>
</g>
</svg>
